<svg width="13" height="13" viewBox="0 0 13 13" fill="none" xmlns="http://www.w3.org/2000/svg">
<path d="M5.77762 5.91901V3.40466H7.06154V5.91901H9.62937V7.17619H7.06154V9.69054H5.77762V7.17619H3.20979V5.91901H5.77762ZM6.41958 12.8335C2.87405 12.8335 0 10.0193 0 6.5476C0 3.07591 2.87405 0.261719 6.41958 0.261719C9.96511 0.261719 12.8392 3.07591 12.8392 6.5476C12.8392 10.0193 9.96511 12.8335 6.41958 12.8335ZM6.41958 11.5763C7.78164 11.5763 9.08792 11.0465 10.051 10.1034C11.0142 9.16037 11.5552 7.8813 11.5552 6.5476C11.5552 5.21391 11.0142 3.93483 10.051 2.99177C9.08792 2.0487 7.78164 1.5189 6.41958 1.5189C5.05752 1.5189 3.75124 2.0487 2.78812 2.99177C1.82499 3.93483 1.28392 5.21391 1.28392 6.5476C1.28392 7.8813 1.82499 9.16037 2.78812 10.1034C3.75124 11.0465 5.05752 11.5763 6.41958 11.5763Z" fill="#2D9CDB"/>
</svg>
