<svg width="21" height="12" viewBox="0 0 21 12" fill="none" xmlns="http://www.w3.org/2000/svg">
<path d="M7.9948 11.5804L6.13557 11.1231L6.89332 8.52857C5.75907 8.14502 4.70492 7.58606 3.77664 6.87597L1.70366 8.77752L0.341258 7.52836L2.41519 5.62769C1.24447 4.34212 0.457845 2.79987 0.132324 1.15189L2.02717 0.834961C2.75796 4.54449 6.29733 7.35886 10.554 7.35886C14.8097 7.35886 18.35 4.54449 19.0808 0.834961L20.9757 1.151C20.6506 2.79921 19.8643 4.34177 18.6938 5.62769L20.7667 7.52836L19.4043 8.77752L17.3314 6.87597C16.4031 7.58606 15.3489 8.14502 14.2147 8.52857L14.9724 11.124L13.1132 11.5804L12.3545 8.98498C11.1628 9.1722 9.94515 9.1722 8.75351 8.98498L7.9948 11.5804Z" fill="#009BDE"/>
</svg>
