<svg width="60" height="60" viewBox="0 0 60 60" fill="none" xmlns="http://www.w3.org/2000/svg">
<path d="M42.975 0.5475C42.6236 0.196991 42.1476 0.000105446 41.6513 0L18.3488 0C17.8524 0.000105446 17.3764 0.196991 17.025 0.5475L0.5475 17.025C0.196991 17.3764 0.000105446 17.8524 0 18.3488L0 41.6513C0.000105446 42.1476 0.196991 42.6236 0.5475 42.975L17.025 59.4525C17.3764 59.803 17.8524 59.9999 18.3488 60H41.6513C42.1476 59.9999 42.6236 59.803 42.975 59.4525L59.4525 42.975C59.803 42.6236 59.9999 42.1476 60 41.6513V18.3488C59.9999 17.8524 59.803 17.3764 59.4525 17.025L42.975 0.5475ZM20.61 22.6238C20.4891 22.6254 20.3692 22.6023 20.2575 22.556C20.1458 22.5097 20.0448 22.4411 19.9605 22.3544C19.8763 22.2677 19.8106 22.1647 19.7676 22.0518C19.7245 21.9388 19.7049 21.8183 19.71 21.6975C20.0625 15.3412 25.2638 13.125 30.0188 13.125C35.2537 13.125 40.0387 15.8625 40.0387 21.525C40.0387 25.575 37.6575 27.5025 35.3737 29.2388C32.61 31.335 31.5863 32.1187 31.5863 34.8112V35.205C31.5863 35.4536 31.4875 35.6921 31.3117 35.8679C31.1358 36.0437 30.8974 36.1425 30.6488 36.1425H27.6112C27.3652 36.1425 27.129 36.0458 26.9536 35.8732C26.7782 35.7007 26.6777 35.466 26.6737 35.22L26.6588 34.4062C26.5163 30.93 28.515 28.7887 31.0388 26.955C33.2513 25.29 34.6575 24.195 34.6575 21.8137C34.6575 18.72 32.3025 17.4338 29.73 17.4338C26.7188 17.4338 25.0312 19.2262 24.6975 21.6863C24.63 22.2 24.2175 22.6238 23.7 22.6238H20.6062H20.61ZM29.3288 46.785C27.1388 46.785 25.545 45.3075 25.545 43.3088C25.545 41.2388 27.1388 39.7838 29.3325 39.7838C31.6163 39.7838 33.1875 41.2388 33.1875 43.3088C33.1875 45.3075 31.6125 46.785 29.3288 46.785Z" fill="#009ADE"/>
</svg>
