<svg width="14" height="14" viewBox="0 0 14 14" fill="none" xmlns="http://www.w3.org/2000/svg">
<path d="M6.99967 13.6663L4.33301 10.9997H9.66634L6.99967 13.6663ZM6.99967 0.333008L9.66634 2.99967H4.33301L6.99967 0.333008ZM6.99967 8.33301C6.64605 8.33301 6.30691 8.19253 6.05687 7.94248C5.80682 7.69243 5.66634 7.3533 5.66634 6.99967C5.66634 6.64605 5.80682 6.30691 6.05687 6.05687C6.30691 5.80682 6.64605 5.66634 6.99967 5.66634C7.3533 5.66634 7.69243 5.80682 7.94248 6.05687C8.19253 6.30691 8.33301 6.64605 8.33301 6.99967C8.33301 7.3533 8.19253 7.69243 7.94248 7.94248C7.69243 8.19253 7.3533 8.33301 6.99967 8.33301ZM0.333008 6.99967L2.99967 4.33301V9.66634L0.333008 6.99967ZM13.6663 6.99967L10.9997 9.66634V4.33301L13.6663 6.99967Z" fill="white"/>
</svg>
