<svg width="9" height="7" viewBox="0 0 9 7" fill="none" xmlns="http://www.w3.org/2000/svg">
<path d="M1.125 0.125H7.875C7.97446 0.125 8.06984 0.164509 8.14017 0.234835C8.21049 0.305161 8.25 0.400544 8.25 0.5V6.5C8.25 6.59946 8.21049 6.69484 8.14017 6.76517C8.06984 6.83549 7.97446 6.875 7.875 6.875H1.125C1.02554 6.875 0.930161 6.83549 0.859835 6.76517C0.789509 6.69484 0.75 6.59946 0.75 6.5V0.5C0.75 0.400544 0.789509 0.305161 0.859835 0.234835C0.930161 0.164509 1.02554 0.125 1.125 0.125ZM4.5225 3.38112L2.118 1.33925L1.63238 1.91075L4.52738 4.36888L7.37025 1.90887L6.87975 1.3415L4.52288 3.38112H4.5225Z" fill="#F37123"/>
</svg>
