<svg width="13" height="12" viewBox="0 0 13 12" fill="none" xmlns="http://www.w3.org/2000/svg">
<path d="M11.8337 5.56542C11.4773 5.31665 11.0835 5.1266 10.667 5.0025V3.08333H5.75882L4.59216 1.91667H1.33366V10.0833H5.58616C5.71157 10.5045 5.90291 10.8977 6.14907 11.25H0.750325C0.595616 11.25 0.447243 11.1885 0.337847 11.0791C0.22845 10.9698 0.166992 10.8214 0.166992 10.6667V1.33333C0.166992 1.17862 0.22845 1.03025 0.337847 0.920854C0.447243 0.811458 0.595616 0.75 0.750325 0.75H5.07516L6.24182 1.91667H11.2503C11.405 1.91667 11.5534 1.97812 11.6628 2.08752C11.7722 2.19692 11.8337 2.34529 11.8337 2.5V5.56542ZM9.50032 11.8333C8.72678 11.8333 7.98491 11.526 7.43793 10.9791C6.89095 10.4321 6.58366 9.69022 6.58366 8.91667C6.58366 8.14312 6.89095 7.40125 7.43793 6.85427C7.98491 6.30729 8.72678 6 9.50032 6C10.2739 6 11.0157 6.30729 11.5627 6.85427C12.1097 7.40125 12.417 8.14312 12.417 8.91667C12.417 9.69022 12.1097 10.4321 11.5627 10.9791C11.0157 11.526 10.2739 11.8333 9.50032 11.8333ZM8.74607 10.4963C9.07271 10.6526 9.43979 10.7037 9.7967 10.6426C10.1536 10.5815 10.4828 10.4112 10.7388 10.1552C10.9949 9.89911 11.1652 9.56995 11.2263 9.21304C11.2874 8.85613 11.2363 8.48906 11.08 8.16242L8.74607 10.4958V10.4963ZM7.92066 9.67092L10.2546 7.33758C9.92793 7.1813 9.56086 7.13019 9.20395 7.19129C8.84704 7.2524 8.51788 7.42271 8.26183 7.67876C8.00579 7.9348 7.83547 8.26397 7.77437 8.62088C7.71326 8.97779 7.76437 9.34486 7.92066 9.6715V9.67092Z" fill="white"/>
</svg>
