<svg width="84" height="84" viewBox="0 0 84 84" fill="none" xmlns="http://www.w3.org/2000/svg">
<path d="M60.165 0.7665C59.673 0.275788 59.0066 0.000147625 58.3118 0L25.6883 0C24.9934 0.000147625 24.327 0.275788 23.835 0.7665L0.7665 23.835C0.275788 24.327 0.000147625 24.9934 0 25.6883L0 58.3118C0.000147625 59.0066 0.275788 59.673 0.7665 60.165L23.835 83.2335C24.327 83.7242 24.9934 83.9999 25.6883 84H58.3118C59.0066 83.9999 59.673 83.7242 60.165 83.2335L83.2335 60.165C83.7242 59.673 83.9999 59.0066 84 58.3118V25.6883C83.9999 24.9934 83.7242 24.327 83.2335 23.835L60.165 0.7665ZM28.854 31.6733C28.6848 31.6755 28.5168 31.6433 28.3605 31.5785C28.2042 31.5136 28.0627 31.4176 27.9448 31.2962C27.8268 31.1748 27.7349 31.0306 27.6746 30.8725C27.6143 30.7144 27.5868 30.5456 27.594 30.3765C28.0875 21.4777 35.3693 18.375 42.0262 18.375C49.3553 18.375 56.0542 22.2075 56.0542 30.135C56.0542 35.805 52.7205 38.5035 49.5232 40.9342C45.654 43.869 44.2208 44.9663 44.2208 48.7357V49.287C44.2208 49.6351 44.0825 49.9689 43.8363 50.2151C43.5902 50.4612 43.2563 50.5995 42.9083 50.5995H38.6558C38.3113 50.5995 37.9806 50.4641 37.735 50.2225C37.4895 49.9809 37.3488 49.6524 37.3433 49.308L37.3223 48.1688C37.1227 43.302 39.921 40.3043 43.4543 37.737C46.5518 35.406 48.5205 33.873 48.5205 30.5392C48.5205 26.208 45.2235 24.4073 41.622 24.4073C37.4062 24.4073 35.0438 26.9167 34.5765 30.3608C34.482 31.08 33.9045 31.6733 33.18 31.6733H28.8487H28.854ZM41.0602 65.499C37.9943 65.499 35.763 63.4305 35.763 60.6322C35.763 57.7342 37.9943 55.6973 41.0655 55.6973C44.2627 55.6973 46.4625 57.7342 46.4625 60.6322C46.4625 63.4305 44.2575 65.499 41.0602 65.499Z" fill="#4679FB"/>
</svg>
