<svg width="8" height="10" viewBox="0 0 8 10" fill="none" xmlns="http://www.w3.org/2000/svg">
<path d="M7.33333 9.16732H1.5C1.16848 9.16732 0.850537 9.03562 0.616117 8.8012C0.381696 8.56678 0.25 8.24884 0.25 7.91732V2.08398C0.25 1.75246 0.381696 1.43452 0.616117 1.2001C0.850537 0.96568 1.16848 0.833984 1.5 0.833984H7.33333C7.44384 0.833984 7.54982 0.877883 7.62796 0.956023C7.7061 1.03416 7.75 1.14014 7.75 1.25065V8.75065C7.75 8.86116 7.7061 8.96714 7.62796 9.04528C7.54982 9.12342 7.44384 9.16732 7.33333 9.16732ZM6.91667 8.33398V7.50065H1.5C1.38949 7.50065 1.28351 7.54455 1.20537 7.62269C1.12723 7.70083 1.08333 7.80681 1.08333 7.91732C1.08333 8.02782 1.12723 8.13381 1.20537 8.21195C1.28351 8.29009 1.38949 8.33398 1.5 8.33398H6.91667ZM4 4.16732C4.22101 4.16732 4.43298 4.07952 4.58926 3.92324C4.74554 3.76696 4.83333 3.555 4.83333 3.33398C4.83333 3.11297 4.74554 2.90101 4.58926 2.74473C4.43298 2.58845 4.22101 2.50065 4 2.50065C3.77899 2.50065 3.56702 2.58845 3.41074 2.74473C3.25446 2.90101 3.16667 3.11297 3.16667 3.33398C3.16667 3.555 3.25446 3.76696 3.41074 3.92324C3.56702 4.07952 3.77899 4.16732 4 4.16732ZM2.75 5.83398H5.25C5.25 5.50246 5.1183 5.18452 4.88388 4.9501C4.64946 4.71568 4.33152 4.58398 4 4.58398C3.66848 4.58398 3.35054 4.71568 3.11612 4.9501C2.8817 5.18452 2.75 5.50246 2.75 5.83398Z" fill="#F37123"/>
</svg>
