<svg width="13" height="13" viewBox="0 0 13 13" fill="none" xmlns="http://www.w3.org/2000/svg">
<path d="M1.3 3.9H11.7V12.35C11.7 12.5224 11.6315 12.6877 11.5096 12.8096C11.3877 12.9315 11.2224 13 11.05 13H1.95C1.77761 13 1.61228 12.9315 1.49038 12.8096C1.36848 12.6877 1.3 12.5224 1.3 12.35V3.9ZM2.6 5.2V11.7H10.4V5.2H2.6ZM4.55 6.5H5.85V10.4H4.55V6.5ZM7.15 6.5H8.45V10.4H7.15V6.5ZM3.25 1.95V0.65C3.25 0.477609 3.31848 0.312279 3.44038 0.190381C3.56228 0.0684819 3.72761 0 3.9 0H9.1C9.27239 0 9.43772 0.0684819 9.55962 0.190381C9.68152 0.312279 9.75 0.477609 9.75 0.65V1.95H13V3.25H0V1.95H3.25ZM4.55 1.3V1.95H8.45V1.3H4.55Z" fill="white"/>
</svg>
