<svg width="13" height="12" viewBox="0 0 13 12" fill="none" xmlns="http://www.w3.org/2000/svg">
<path d="M0.750326 11.25C0.595616 11.25 0.447243 11.1885 0.337847 11.0791C0.22845 10.9697 0.166992 10.8214 0.166992 10.6667V1.33333C0.166992 1.17862 0.22845 1.03025 0.337847 0.920854C0.447243 0.811458 0.595616 0.75 0.750326 0.75H5.07516L6.24183 1.91667H10.667C10.8217 1.91667 10.9701 1.97812 11.0795 2.08752C11.1889 2.19692 11.2503 2.34529 11.2503 2.5V4.25H10.0837V3.08333H5.75883L4.59216 1.91667H1.33366V8.9155L2.20866 5.41667H12.1253L10.7778 10.8084C10.7462 10.9346 10.6734 11.0465 10.5709 11.1265C10.4683 11.2065 10.342 11.25 10.212 11.25H0.750326ZM10.6308 6.58333H3.11983L2.24483 10.0833H9.75583L10.6308 6.58333Z" fill="white"/>
</svg>
