<svg width="78" height="68" viewBox="0 0 78 68" fill="none" xmlns="http://www.w3.org/2000/svg">
<path d="M77.0507 32.5881L59.2106 2.05075C58.9697 1.63618 58.6243 1.29209 58.2088 1.05286C57.7933 0.813634 57.3223 0.687649 56.8428 0.6875H21.1523C20.6733 0.688098 20.2028 0.814295 19.7878 1.0535C19.3728 1.29271 19.0277 1.63656 18.7871 2.05075L0.944432 32.5906C0.694305 33.0191 0.5625 33.5064 0.5625 34.0026C0.5625 34.4987 0.694305 34.986 0.944432 35.4145L18.7897 65.9518C19.0303 66.366 19.3753 66.7098 19.7904 66.9491C20.2054 67.1883 20.6759 67.3145 21.1549 67.3151H56.8454C57.3244 67.3145 57.7949 67.1883 58.2099 66.9491C58.6249 66.7098 58.9699 66.366 59.2106 65.9518L77.0507 35.4094C77.3008 34.9809 77.4326 34.4936 77.4326 33.9974C77.4326 33.5013 77.3008 33.014 77.0507 32.5855V32.5881ZM36.1173 13.5H41.8829V41.6875H36.1173V13.5ZM38.9976 57.0625C38.2373 57.0625 37.4942 56.8371 36.8621 56.4147C36.23 55.9923 35.7373 55.392 35.4464 54.6897C35.1555 53.9873 35.0793 53.2145 35.2277 52.4689C35.376 51.7233 35.7421 51.0384 36.2796 50.5008C36.8172 49.9632 37.5021 49.5972 38.2477 49.4489C38.9933 49.3005 39.7661 49.3767 40.4685 49.6676C41.1708 49.9585 41.7712 50.4512 42.1935 51.0833C42.6159 51.7154 42.8413 52.4585 42.8413 53.2187C42.8413 54.2382 42.4363 55.2158 41.7155 55.9367C40.9946 56.6575 40.017 57.0625 38.9976 57.0625Z" fill="#FB4646"/>
</svg>
