<svg width="15" height="15" viewBox="0 0 15 15" fill="none" xmlns="http://www.w3.org/2000/svg">
<path d="M1.5 4.5H13.5V14.25C13.5 14.4489 13.421 14.6397 13.2803 14.7803C13.1397 14.921 12.9489 15 12.75 15H2.25C2.05109 15 1.86032 14.921 1.71967 14.7803C1.57902 14.6397 1.5 14.4489 1.5 14.25V4.5ZM3 6V13.5H12V6H3ZM5.25 7.5H6.75V12H5.25V7.5ZM8.25 7.5H9.75V12H8.25V7.5ZM3.75 2.25V0.75C3.75 0.551088 3.82902 0.360322 3.96967 0.21967C4.11032 0.0790176 4.30109 0 4.5 0H10.5C10.6989 0 10.8897 0.0790176 11.0303 0.21967C11.171 0.360322 11.25 0.551088 11.25 0.75V2.25H15V3.75H0V2.25H3.75ZM5.25 1.5V2.25H9.75V1.5H5.25Z" fill="#FB4646"/>
</svg>
