<svg width="68" height="68" viewBox="0 0 68 68" fill="none" xmlns="http://www.w3.org/2000/svg">
<path d="M33.7778 0C27.0972 0 20.5666 1.98103 15.0119 5.69258C9.45714 9.40413 5.12776 14.6795 2.5712 20.8516C0.0146353 27.0237 -0.654277 33.8152 0.649046 40.3675C1.95237 46.9197 5.16939 52.9384 9.8933 57.6623C14.6172 62.3862 20.6358 65.6032 27.1881 66.9065C33.7403 68.2099 40.5319 67.5409 46.704 64.9844C52.8761 62.4278 58.1514 58.0984 61.863 52.5437C65.5745 46.989 67.5556 40.4584 67.5556 33.7778C67.5556 24.8194 63.9969 16.2278 57.6623 9.89328C51.3277 3.55872 42.7362 0 33.7778 0ZM55.8389 22.4411L28.0989 50.16L11.7167 33.7778C11.1568 33.2179 10.8422 32.4585 10.8422 31.6667C10.8422 30.8748 11.1568 30.1155 11.7167 29.5556C12.2766 28.9957 13.036 28.6811 13.8278 28.6811C14.6196 28.6811 15.379 28.9957 15.9389 29.5556L28.1411 41.7578L51.6589 18.2611C51.9361 17.9839 52.2653 17.764 52.6275 17.6139C52.9897 17.4639 53.3779 17.3867 53.77 17.3867C54.1621 17.3867 54.5503 17.4639 54.9125 17.6139C55.2748 17.764 55.6039 17.9839 55.8811 18.2611C56.1584 18.5383 56.3783 18.8675 56.5283 19.2297C56.6784 19.5919 56.7556 19.9802 56.7556 20.3722C56.7556 20.7643 56.6784 21.1525 56.5283 21.5147C56.3783 21.877 56.1584 22.2061 55.8811 22.4833L55.8389 22.4411Z" fill="#27AE60"/>
</svg>
